<?xml version="1.0" standalone="no"?>
<!DOCTYPE svg PUBLIC "-//W3C//DTD SVG 20010904//EN"
 "http://www.w3.org/TR/2001/REC-SVG-20010904/DTD/svg10.dtd">
<svg version="1.0" xmlns="http://www.w3.org/2000/svg"
 width="1380.000000pt" height="1084.000000pt" viewBox="0 0 1380.000000 1084.000000"
 preserveAspectRatio="xMidYMid meet">

<g transform="translate(0.000000,1084.000000) scale(0.100000,-0.100000)"
fill="#FFFFFF" stroke="none">
<path d="M7823 7183 c-68 -2 -123 -8 -123 -13 0 -8 374 -1150 906 -2767 l215
-653 394 0 c270 0 395 3 395 11 0 9 -383 1210 -837 2619 -101 316 -196 594
-209 618 -41 71 -82 110 -148 142 -54 27 -80 32 -182 40 -65 5 -157 9 -204 8
-47 -1 -140 -4 -207 -5z"/>
<path d="M10310 7175 c-105 -21 -200 -91 -257 -186 -39 -65 -604 -1749 -622
-1854 -14 -80 -9 -133 25 -265 44 -171 257 -831 266 -822 5 5 209 577 454
1273 245 695 483 1373 530 1506 47 133 84 252 82 265 -4 31 -68 65 -148 77
-101 16 -270 19 -330 6z"/>
<path d="M7011 7161 l-354 -6 -373 -1149 c-206 -632 -376 -1151 -379 -1154 -3
-3 -7 -3 -10 0 -3 3 -162 472 -354 1042 -261 780 -350 1034 -358 1024 -6 -7
-63 -173 -126 -368 -207 -638 -192 -582 -191 -695 l1 -100 127 -365 c70 -201
205 -601 300 -891 96 -289 185 -547 199 -575 31 -62 112 -138 174 -165 73 -31
190 -43 324 -32 96 8 127 15 181 40 81 38 138 95 178 177 23 47 458 1378 677
2071 19 61 39 114 43 119 4 4 13 -1 18 -11 6 -11 169 -501 363 -1089 193 -588
363 -1090 376 -1115 40 -75 79 -116 141 -146 l57 -28 303 -3 c166 -2 302 0
302 4 0 6 -858 2641 -1061 3260 -22 68 -49 130 -60 140 -24 22 -30 22 -498 15z"/>
<path d="M3705 5458 c-307 -937 -560 -1709 -563 -1716 -4 -11 54 -13 314 -10
l319 3 65 31 c74 35 136 94 173 162 22 40 171 500 919 2832 66 206 123 381
125 388 4 9 -79 12 -394 12 l-399 0 -559 -1702z"/>
</g>
</svg>
